<svg width="16" height="16" viewBox="0 0 16 16" fill="none" xmlns="http://www.w3.org/2000/svg">
<path d="M14.5915 9.6526C14.5915 10.1437 14.3708 10.6017 13.9864 10.9088C13.6995 11.1388 13.3518 11.2601 12.9821 11.2601C12.4892 11.2601 12.0294 11.0376 11.7204 10.6495L11.4334 10.2853L11.1447 10.6495C10.8375 11.0376 10.3777 11.2583 9.88293 11.2583C9.38816 11.2583 8.92833 11.0358 8.62117 10.6477L8.33424 10.2853L8.04547 10.6495C7.73831 11.0376 7.27849 11.2601 6.78372 11.2601C6.28895 11.2601 5.82913 11.0376 5.52197 10.6495L5.23504 10.2853L4.94627 10.6495C4.63911 11.0376 4.17928 11.2601 3.68451 11.2601C3.31482 11.2601 2.96719 11.1388 2.68026 10.9088C2.29585 10.6017 2.07513 10.1437 2.07513 9.6526C2.07513 8.76606 2.79614 8.04322 3.68451 8.04322C3.85373 8.04322 4.56554 8.04322 5.52565 8.04506L6.97685 8.0469V4.9293C6.97685 4.67916 7.18101 4.475 7.43115 4.475H9.24837C9.49852 4.475 9.70268 4.67916 9.70268 4.9293V8.0469C11.3452 8.04874 12.7338 8.04874 12.9821 8.04874C13.8705 8.04874 14.5915 8.7679 14.5915 9.6526Z" fill="#F9F9F9"/>
<path d="M14.4995 11.4404V15.4133C14.4995 15.737 14.2365 16 13.9128 16H2.76855C2.44483 16 2.18181 15.737 2.18181 15.4133V11.4478C2.19469 11.4588 2.20756 11.4698 2.22228 11.4809C2.29769 11.5416 2.37678 11.5967 2.45771 11.6464C2.82557 11.8726 3.25044 11.994 3.68451 11.994C4.26389 11.994 4.81016 11.7843 5.23504 11.4091C5.65991 11.7843 6.20618 11.994 6.78556 11.994C7.36494 11.994 7.91121 11.7843 8.33608 11.4091C8.76096 11.7843 9.30723 11.994 9.88661 11.994C10.466 11.994 11.0123 11.7843 11.4371 11.4091C11.862 11.7843 12.4083 11.994 12.9877 11.994C13.4272 11.994 13.8576 11.8689 14.2273 11.639C14.3046 11.5912 14.38 11.5379 14.4499 11.4809C14.4646 11.4698 14.4812 11.4551 14.4995 11.4404Z" fill="#F9F9F9"/>
<path d="M6.78924 2.45178V2.4481C6.80763 1.25624 8.10433 0.189447 8.16135 0.143465L8.33976 0L8.51449 0.147143C8.52921 0.160018 8.87867 0.457984 9.22078 0.879181C9.699 1.47143 9.92155 2.00299 9.88109 2.46465C9.87373 3.31073 9.184 3.99678 8.33608 3.99678C7.48265 3.99678 6.78924 3.30337 6.78924 2.45178Z" fill="#F9F9F9"/>
</svg>
