<?xml version="1.0" encoding="UTF-8"?>
<svg id="Calque_1" data-name="Calque 1" xmlns="http://www.w3.org/2000/svg" viewBox="0 0 236.61 364.42">
  <path d="M68.53,321.35c28.29,16,61.99,7.57,85.07-14.09,21.06-19.77,20-51.23,7.89-77.28,13.07,3.81,25.4,10.27,33.43,21.17,10.6,14.39,11.43,33.46,3.72,49.25,18.37-5.36,26.12-17.37,34.65-33.4,2.91,34.66-7.94,66.57-38.69,83.83-28.3,15.88-66.4,15.39-97.92,10.83-14.96-2.17-28.98-6.32-42.57-12.4-29.74-13.28-48.74-39.88-52.43-72.21-7.2-63.03,24.49-86.58-1.68-129.5,7.85-1.23,14.51,3.44,17.91,10,13.48,26.01-9.26,38.03,3.29,77.56,5.22,16.43,17.36,29.96,34.45,33.84,9.29,2.11,17.88-1.46,23.34-9.07s8.45-23.38,6.85-32.71c-1.11-6.5-2.05-13.35-6.8-18.24-9.94-10.23-26.92-3.6-40.32.14-.86-41.53,22.68-67.78,46.57-97.83,16.45-20.69,29.49-43.21,23.84-70.65-3.31-16.06-13.12-28.45-25.04-40.6,34.18,10.82,66.66,33.18,63.99,72.51-.81,11.87-3.92,22.8-7.19,34.08l-6.53,22.5c-6.19,21.33-1,46.83,19.18,58.18,7.54,4.24,17.87,4.36,19.41-.89.42-1.42-.25-4.88-1.23-6.15-12.25-15.85-14.62-37.06-3.08-54.89,12.7,27.6,29.23,32.41,47.21,53.9,14.66,19.42,24.97,45.76,19.1,69.3.08-21.23-10.85-34.77-27.16-44.01,7.15,12.87,6.67,27.82-3.45,38.74-8.62-29.45-43.72-33.71-72.16-55.3-26.07-19.79-28.82-50.38-17.64-79.56-2.04,1.27-2.47,4.01-3.6,6.28l-16.89,33.92c-6.5,13.06-8.43,27.19-7.17,41.85,8.69,4.35,14.63,11.28,19.04,19.87,12.28,23.9,1.27,53.44-16.77,69.77-15.86,14.36-36.79,10.16-53.51-1.28,4.63,17.32,16.23,33.1,32.88,42.51Z"/>
  <path d="M146.1,288.63c-6.32,12.94-27.92,23.01-38.34,14.78-7.81-6.17-6.9-17.1-.04-23.83,25.78-25.34,20.88-45.75,11.47-78.58,17.02,13.61,28.38,31.59,32.54,52.64-5.74-1.38-10.94-.79-14.83,3.43-6.96,7.55-6.96,20.05.48,27.42,2.13,2.11,5.03,2.96,8.71,4.15Z"/>
</svg>