<svg width="16" height="16" viewBox="0 0 16 16" fill="none" xmlns="http://www.w3.org/2000/svg">
<path d="M7.31029 1.87716C4.49225 1.87716 2.20001 4.1694 2.20001 6.98744C2.20001 9.60148 4.17426 11.7617 6.71028 12.0593V13.4593H5.80793V14.6617H6.71028V16H7.91264V14.6617H8.815V13.4593H7.91264V12.0593C10.4487 11.7617 12.4229 9.60148 12.4229 6.98744C12.4229 5.67336 11.9229 4.4734 11.1049 3.56559L12.4628 2.20775L12.3807 2.85386L13.4964 2.99605L13.8761 0L10.88 0.379686L11.0222 1.49532L11.6683 1.41329L10.2644 2.81955C9.43 2.22736 8.41037 1.87716 7.31029 1.87716ZM11.2182 6.98744C11.2182 9.14367 9.46422 10.8953 7.31029 10.8953C5.15626 10.8953 3.40243 9.14137 3.40243 6.98744C3.40243 4.83341 5.15636 3.07958 7.31029 3.07958C9.46432 3.07958 11.2182 4.83351 11.2182 6.98744Z" fill="#F9F9F9"/>
<path fill-rule="evenodd" clip-rule="evenodd" d="M7.31029 10.8953C9.46422 10.8953 11.2182 9.14367 11.2182 6.98744C11.2182 4.83351 9.46432 3.07958 7.31029 3.07958C5.15636 3.07958 3.40243 4.83341 3.40243 6.98744C3.40243 9.14137 5.15626 10.8953 7.31029 10.8953Z" fill="#F9F9F9"/>
</svg>
